<?xml version="1.0" encoding="UTF-8" standalone="no"?>
<!-- Created with Inkscape (http://www.inkscape.org/) -->

<svg
   width="60"
   height="26"
   viewBox="0 0 15.874999 6.8791666"
   version="1.1"
   id="svg1"
   xml:space="preserve"
   inkscape:export-filename="rest_note.svg"
   inkscape:export-xdpi="96"
   inkscape:export-ydpi="96"
   xmlns:inkscape="http://www.inkscape.org/namespaces/inkscape"
   xmlns:sodipodi="http://sodipodi.sourceforge.net/DTD/sodipodi-0.dtd"
   xmlns="http://www.w3.org/2000/svg"
   xmlns:svg="http://www.w3.org/2000/svg"><sodipodi:namedview
     id="namedview1"
     pagecolor="#ffffff"
     bordercolor="#666666"
     borderopacity="1.0"
     inkscape:showpageshadow="2"
     inkscape:pageopacity="0.0"
     inkscape:pagecheckerboard="0"
     inkscape:deskcolor="#d1d1d1"
     inkscape:document-units="px"
     showgrid="true"><inkscape:grid
       id="grid1"
       units="px"
       originx="0"
       originy="0"
       spacingx="0.26458332"
       spacingy="0.26458333"
       empcolor="#3f3fff"
       empopacity="0.25098039"
       color="#3f3fff"
       opacity="0.1254902"
       empspacing="5"
       dotted="false"
       gridanglex="30"
       gridanglez="30"
       visible="true" /></sodipodi:namedview><defs
     id="defs1" /><g
     inkscape:label="Layer 1"
     inkscape:groupmode="layer"
     id="layer1"><path
       style="fill:none;stroke:#000000;stroke-width:0.529167;stroke-linecap:round;stroke-linejoin:miter;stroke-dasharray:none;stroke-opacity:1"
       d="m 3.4395832,3.1749996 h 2.1166665 v 0"
       id="path3" /><path
       d="m 8.4666664,0.26458331 c -0.198885,0.0375544 -0.351785,0.17512604 -0.4188463,0.3651972 -0.016478,0.0613133 -0.016478,0.0762584 -0.016478,0.16018093 0,0.11534565 0.00728,0.17665885 0.061313,0.26786236 0.076259,0.1529 0.2364394,0.2755266 0.4207624,0.3203619 0.1900712,0.054032 0.4951047,0.014945 0.862218,-0.1061486 0.05365,-0.022609 0.09849,-0.039087 0.09849,-0.031423 0,0.00881 -0.3425884,1.1227993 -0.3575338,1.1615034 C 9.0775,2.500985 8.9472092,2.6837753 8.8333964,2.7987377 8.7272479,2.9052695 8.6732155,2.9290284 8.5896761,2.8903244 8.5206987,2.85277 8.4980895,2.8136828 8.4517213,2.6071337 8.4130173,2.4546169 8.3831271,2.3706944 8.3218138,2.310914 8.1616329,2.134255 7.8861063,2.1116458 7.6734259,2.2496007 7.5730254,2.3181949 7.496767,2.4247267 7.4519317,2.5400723 c -0.016478,0.05978 -0.016478,0.076258 -0.016478,0.1597977 0,0.1138128 0.00881,0.1755093 0.061313,0.2667128 0.076259,0.1525168 0.2364393,0.2755265 0.4207623,0.3203619 0.083923,0.023758 0.2977526,0.023758 0.4429884,0 0.1210938,-0.02261 0.2663296,-0.060163 0.4115655,-0.1065319 0.061313,-0.022226 0.1153455,-0.037171 0.1153455,-0.02989 0,0 -0.7484051,2.4356699 -0.7633503,2.472841 0,0.00767 0.059781,0.054032 0.1210938,0.068977 0.061313,0.024142 0.1230098,0.024142 0.184323,0 0.059781,-0.014945 0.1210938,-0.052499 0.1210938,-0.076259 0.00767,-0.00767 0.3130809,-1.1599706 0.6870918,-2.5582965 l 0.679811,-2.54181866 -0.01494,-0.0222261 c -0.03027,-0.0463681 -0.09159,-0.0540324 -0.145236,-0.0314231 -0.03027,0.0149452 -0.03027,0.0149452 -0.121477,0.15251677 -0.07625,0.12262655 -0.183939,0.25138438 -0.245253,0.31269768 -0.08392,0.068978 -0.128758,0.083923 -0.205399,0.054032 C 9.1165868,0.94401109 9.0924453,0.90530709 9.0476096,0.69875794 9.0012415,0.49374168 8.9472092,0.40062214 8.8333964,0.32436376 8.7272479,0.25576957 8.5896761,0.23316026 8.4666664,0.26458331 Z"
       style="fill:#000000;fill-rule:evenodd;stroke:#000000;stroke-width:0;stroke-linecap:butt;stroke-linejoin:round;stroke-miterlimit:10"
       id="path90" /></g></svg>
