<?xml version="1.0" encoding="UTF-8" standalone="no"?>
<!-- Created with Inkscape (http://www.inkscape.org/) -->

<svg
   width="20"
   height="10"
   viewBox="0 0 5.8208332 3.1749999"
   version="1.1"
   id="svg1"
   xml:space="preserve"
   xmlns:xlink="http://www.w3.org/1999/xlink"
   xmlns="http://www.w3.org/2000/svg"
   xmlns:svg="http://www.w3.org/2000/svg"><defs
     id="defs1"><linearGradient
       id="linearGradient2-1"><stop
         style="stop-color:#cc9da8;stop-opacity:1;"
         offset="0"
         id="stop6" /><stop
         style="stop-color:#b90306;stop-opacity:1;"
         offset="1"
         id="stop7" /></linearGradient><linearGradient
       id="linearGradient2"><stop
         style="stop-color:#000000;stop-opacity:1;"
         offset="0"
         id="stop4" /><stop
         style="stop-color:#000000;stop-opacity:0;"
         offset="1"
         id="stop5" /></linearGradient><linearGradient
       id="linearGradient2-2"><stop
         style="stop-color:#63323c;stop-opacity:1;"
         offset="0"
         id="stop3" /><stop
         style="stop-color:#490101;stop-opacity:1;"
         offset="0.53692615"
         id="stop2" /></linearGradient><radialGradient
       xlink:href="#linearGradient2-1"
       id="radialGradient3"
       cx="2.6458333"
       cy="1.5872171"
       fx="2.6458333"
       fy="1.5872171"
       r="2.6467414"
       gradientTransform="matrix(1,0,0,0.50014193,0,0.79366608)"
       gradientUnits="userSpaceOnUse" /></defs><g
     id="layer1"><path
       style="color:#000000;fill:url(#radialGradient3);stroke-linecap:round;stroke-linejoin:round;-inkscape-stroke:none"
       d="m 0.41992188,0.28710938 a 0.26460996,0.26460996 0 0 0 -0.15625,0.24218749 V 2.6464844 A 0.2645835,0.2645835 0 0 0 0.52929687,2.9101563 0.2645835,0.2645835 0 0 0 0.79296875,2.6464844 V 1.1171875 L 2.734375,2.84375 A 0.26460996,0.26460996 0 0 0 3.1757813,2.6464844 V 1.1191406 L 5.1152344,2.84375 a 0.2645835,0.2645835 0 0 0 0.375,-0.021484 0.2645835,0.2645835 0 0 0 -0.023437,-0.375 L 3.0859375,0.33203125 A 0.26460996,0.26460996 0 0 0 2.6464844,0.52929687 V 2.0566406 L 0.70507812,0.33203125 A 0.26460996,0.26460996 0 0 0 0.41992188,0.28710938 Z"
       id="path1" /></g></svg>
