<?xml version="1.0" encoding="UTF-8" standalone="no"?>
<!-- Created with Inkscape (http://www.inkscape.org/) -->

<svg
   width="22"
   height="12"
   viewBox="0 0 5.8208332 3.1749999"
   version="1.1"
   id="svg1"
   xml:space="preserve"
   xmlns="http://www.w3.org/2000/svg"
   xmlns:svg="http://www.w3.org/2000/svg"><defs
     id="defs1" /><g
     id="layer1"><path
       style="color:#000000;fill:#000000;stroke-linecap:round;stroke-linejoin:round;-inkscape-stroke:none"
       d="m 0.41992188,0.28710938 a 0.26460996,0.26460996 0 0 0 -0.15625,0.24218749 V 2.6464844 A 0.2645835,0.2645835 0 0 0 0.52929687,2.9101563 0.2645835,0.2645835 0 0 0 0.79296875,2.6464844 V 1.1171875 L 2.734375,2.84375 A 0.26460996,0.26460996 0 0 0 3.1757813,2.6464844 V 1.1191406 L 5.1152344,2.84375 a 0.2645835,0.2645835 0 0 0 0.375,-0.021484 0.2645835,0.2645835 0 0 0 -0.023437,-0.375 L 3.0859375,0.33203125 A 0.26460996,0.26460996 0 0 0 2.6464844,0.52929687 V 2.0566406 L 0.70507812,0.33203125 A 0.26460996,0.26460996 0 0 0 0.41992188,0.28710938 Z"
       id="path1" /></g></svg>
